<svg id="Layer_1" data-name="Layer 1" xmlns="http://www.w3.org/2000/svg" viewBox="0 0 800 600"><defs><style>.cls-1{fill:red;}</style></defs><path class="cls-1" d="M288,208.4h-.2l-8.1,28.14H296Zm0,0h-.2l-8.1,28.14H296Zm0,0h-.2l-8.1,28.14H296Zm0,0h-.2l-8.1,28.14H296Zm0,0h-.2l-8.1,28.14H296Zm224.3,0h-.2l-8.11,28.14h16.31Zm0,0h-.2l-8.11,28.14h16.31Zm-224.3,0h-.2l-8.1,28.14H296ZM0,0V600H800V0ZM138.32,219c2.7,0,5.19,1.45,5.19,5.19s-2.49,5.19-5.19,5.19H123.05V254.2h35.73c2.7,0,5.19,1.45,5.19,5.19s-2.49,5.19-5.19,5.19H112.67v-80.8h46.11c2.7,0,5.19,1.46,5.19,5.2s-2.49,5.19-5.19,5.19H123.05V219Zm100.42-13.61a10.65,10.65,0,0,1-.63,4.05L218.28,260c-1,2.6-2,4.57-5.19,4.57s-4.16-2-5.2-4.57l-19.83-50.58a10.65,10.65,0,0,1-.63-4.05V189c0-3.33,1.46-5.2,5.2-5.2s5.19,1.87,5.19,5.2v16.61l15.27,39.67,15.26-39.67V189c0-3.33,1.46-5.2,5.19-5.2s5.2,1.87,5.2,5.2Zm69.57,59.2c-3.22,0-4.88-2.7-5.61-5.19l-3.84-12.46H276.74l-3.95,12.46c-.72,2.49-2.39,5.19-5.61,5.19-2.9,0-5.71-2.7-5-5.19l20.35-70.31c.84-2.8,2-5.3,5.3-5.3s4.67,2.6,5.4,5.3l20,70.31C314,261.88,311.22,264.58,308.31,264.58Zm41.22-32.92,8.83,18c2.08,4.25,3.11,4.57,7.79,4.57h16.92c2.29,0,5.2,1.24,5.2,5.19a4.94,4.94,0,0,1-5.2,5.19H364.9c-7.79,0-12.25-3.12-15.58-9.87l-9.55-19.31A23.29,23.29,0,0,1,337,224.49,22.7,22.7,0,0,1,339.87,213l9.56-19.22c3.53-7.16,8-10,16-10h17.65c2.29,0,5.2,1.25,5.2,5.2a4.94,4.94,0,0,1-5.2,5.19H365.73c-4.46,0-5.19.41-7.16,4.36l-9,18.07c-1.35,2.8-2.18,4.67-2.18,7.89C347.35,227.4,348.28,229.17,349.53,231.66ZM463,246.93c0,4.77-.52,8.51-4,12.35-3.64,4.05-7.69,5.3-12.88,5.3H428.56c-5.2,0-9.25-1.25-12.88-5.3-3.43-3.84-3.95-7.58-3.95-12.35V189c0-3.33,1.46-5.2,5.2-5.2s5.19,1.87,5.19,5.2v58c0,5.81,1.76,7.27,6.44,7.27h17.65c4.67,0,6.44-1.46,6.44-7.27V189c0-3.33,1.45-5.2,5.19-5.2s5.2,1.87,5.2,5.2Zm69.57,17.65c-3.22,0-4.88-2.7-5.61-5.19l-3.84-12.46H501l-4,12.46c-.73,2.49-2.39,5.19-5.61,5.19-2.9,0-5.71-2.7-5-5.19l20.35-70.31c.83-2.8,2-5.3,5.3-5.3s4.67,2.6,5.4,5.3l20,70.31C538.32,261.88,535.52,264.58,532.61,264.58Zm80-66.67c0,3.32-1.46,5.19-5.2,5.19s-5.19-1.87-5.19-5.19v-3.74H592.11v65.22c0,3.32-1.46,5.19-5.2,5.19s-5.19-1.87-5.19-5.19V194.17H571.65v3.74c0,3.32-1.46,5.19-5.19,5.19s-5.2-1.87-5.2-5.19V183.78h51.31ZM661.68,219c2.7,0,5.19,1.45,5.19,5.19s-2.49,5.19-5.19,5.19H646.41V254.2h35.73c2.7,0,5.19,1.45,5.19,5.19s-2.49,5.19-5.19,5.19H636v-80.8h46.11c2.7,0,5.19,1.46,5.19,5.2s-2.49,5.19-5.19,5.19H646.41V219ZM512.05,208.4l-8.11,28.14h16.31l-8-28.14Zm-224.3,0-8.1,28.14H296l-8-28.14Zm.2,0h-.2l-8.1,28.14H296Zm224.3,0h-.2l-8.11,28.14h16.31Zm0,0h-.2l-8.11,28.14h16.31Zm-224.3,0h-.2l-8.1,28.14H296Zm0,0h-.2l-8.1,28.14H296Zm0,0h-.2l-8.1,28.14H296Z"/></svg>