<svg id="Layer_1" data-name="Layer 1" xmlns="http://www.w3.org/2000/svg" viewBox="0 0 452.96 264.93"><defs><style>.cls-1{fill:#ff8945;}.cls-2{fill:#e90000;}</style></defs><path class="cls-1" d="M752.38,241.14v60.21H735.5l-1.7-9.49q-13,11.52-31.55,11.52a47.19,47.19,0,0,1-21-4.59,35,35,0,0,1-14.75-13.31q-5.37-8.72-5.37-20.54V234.6q0-13.38,5.79-23.34a38.9,38.9,0,0,1,16.8-15.4q11-5.45,26.17-5.45,14.33,0,24.3,4.36a45.54,45.54,0,0,1,17,12.76l-14,9a32.12,32.12,0,0,0-11.34-8.4q-6.23-2.64-15.44-2.64-13.8,0-20.8,7.23t-7,20.93v30.81q0,11.2,6.22,17.5t18,6.3a32.54,32.54,0,0,0,14.41-3,28.75,28.75,0,0,0,10.32-8.33l.17-21.16H706.34V241.14Z" transform="translate(-657.16 -186.41)"/><path class="cls-1" d="M838.83,272.72H797.57l-9,28.63H766.87l36.49-108.91h29.16l38.37,108.91H848.72ZM802.34,257h31.38l-15.86-50.88Z" transform="translate(-657.16 -186.41)"/><path class="cls-1" d="M1004.57,192.44V301.35H983.94V222.16l-25.07,63.48.17.15H936.37l-25.58-66.12v81.68H891.35V192.44h27.79L948.3,269.3l30-76.71-.17-.15Z" transform="translate(-657.16 -186.41)"/><path class="cls-1" d="M1061.86,207.53v31h44.51v15.1h-44.51V286.1h48.26v15.25h-69.74V192.44h69.74v15.09Z" transform="translate(-657.16 -186.41)"/><path class="cls-1" d="M754.09,344a38.1,38.1,0,0,1,16.54,15.64,47.06,47.06,0,0,1,5.54,23.11v24.42A46.3,46.3,0,0,1,770.63,430a38.6,38.6,0,0,1-16.54,15.63q-11,5.68-27,5.68-15.85,0-26.86-5.68A38.6,38.6,0,0,1,683.66,430a46.3,46.3,0,0,1-5.54-22.88V382.73a47.06,47.06,0,0,1,5.54-23.11A38.1,38.1,0,0,1,700.2,344q11-5.6,26.86-5.6Q743.08,338.38,754.09,344Zm-47.58,17.27q-6.9,7.78-6.9,21.32v24.9q0,13.38,6.9,21.08t20.55,7.7q13.63,0,20.55-7.7t6.9-21.08v-24.9q0-13.53-6.9-21.32t-20.55-7.78Q713.41,353.47,706.51,361.25Z" transform="translate(-657.16 -186.41)"/><path class="cls-1" d="M788.1,340.4h22.34l30,92.74,28-92.74h22L855,449.32H825.62Z" transform="translate(-657.16 -186.41)"/><path class="cls-1" d="M932.53,355.5v31H977v15.09h-44.5v32.52h48.26v15.25H911V340.4h69.75v15.1Z" transform="translate(-657.16 -186.41)"/><path class="cls-1" d="M1049.84,406.22h-18.07v43.1h-21.49V340.4h40.24q18.93,0,30.36,7.71t11.42,21.08v8.09a22.67,22.67,0,0,1-5.71,15.4q-5.71,6.54-15.95,10.12l27.46,46.52h-23.53Zm-18.07-14.63h18.07q9.72,0,15.26-3.88a12.56,12.56,0,0,0,5.54-10.9v-6.69a12.62,12.62,0,0,0-5.62-11q-5.62-3.9-15.35-3.89h-17.9Z" transform="translate(-657.16 -186.41)"/><path class="cls-2" d="M748.38,237.14v60.21H731.5l-1.7-9.49q-13,11.52-31.55,11.52a47.19,47.19,0,0,1-21-4.59,35,35,0,0,1-14.75-13.31q-5.37-8.72-5.37-20.54V230.6q0-13.38,5.79-23.34a38.9,38.9,0,0,1,16.8-15.4q11-5.45,26.17-5.45,14.33,0,24.3,4.36a45.54,45.54,0,0,1,17,12.76l-14,9a32.12,32.12,0,0,0-11.34-8.4q-6.23-2.64-15.44-2.64-13.8,0-20.8,7.23t-7,20.93v30.81q0,11.2,6.22,17.5t18,6.3a32.54,32.54,0,0,0,14.41-3,28.75,28.75,0,0,0,10.32-8.33l.17-21.16H702.34V237.14Z" transform="translate(-657.16 -186.41)"/><path class="cls-2" d="M834.83,268.72H793.57l-9,28.63H762.87l36.49-108.91h29.16l38.37,108.91H844.72ZM798.34,253h31.38l-15.86-50.88Z" transform="translate(-657.16 -186.41)"/><path class="cls-2" d="M1000.57,188.44V297.35H979.94V218.16l-25.07,63.48.17.15H932.37l-25.58-66.12v81.68H887.35V188.44h27.79L944.3,265.3l30-76.71-.17-.15Z" transform="translate(-657.16 -186.41)"/><path class="cls-2" d="M1057.86,203.53v31h44.51v15.1h-44.51V282.1h48.26v15.25h-69.74V188.44h69.74v15.09Z" transform="translate(-657.16 -186.41)"/><path class="cls-2" d="M750.09,340a38.1,38.1,0,0,1,16.54,15.64,47.06,47.06,0,0,1,5.54,23.11v24.42A46.3,46.3,0,0,1,766.63,426a38.6,38.6,0,0,1-16.54,15.63q-11,5.68-27,5.68-15.85,0-26.86-5.68A38.6,38.6,0,0,1,679.66,426a46.3,46.3,0,0,1-5.54-22.88V378.73a47.06,47.06,0,0,1,5.54-23.11A38.1,38.1,0,0,1,696.2,340q11-5.6,26.86-5.6Q739.08,334.38,750.09,340Zm-47.58,17.27q-6.9,7.78-6.9,21.32v24.9q0,13.38,6.9,21.08t20.55,7.7q13.63,0,20.55-7.7t6.9-21.08v-24.9q0-13.53-6.9-21.32t-20.55-7.78Q709.41,349.47,702.51,357.25Z" transform="translate(-657.16 -186.41)"/><path class="cls-2" d="M784.1,336.4h22.34l30,92.74,28-92.74h22L851,445.32H821.62Z" transform="translate(-657.16 -186.41)"/><path class="cls-2" d="M928.53,351.5v31H973v15.09h-44.5v32.52h48.26v15.25H907V336.4h69.75v15.1Z" transform="translate(-657.16 -186.41)"/><path class="cls-2" d="M1045.84,402.22h-18.07v43.1h-21.49V336.4h40.24q18.93,0,30.36,7.71t11.42,21.08v8.09a22.67,22.67,0,0,1-5.71,15.4q-5.71,6.54-15.95,10.12l27.46,46.52h-23.53Zm-18.07-14.63h18.07q9.72,0,15.26-3.88a12.56,12.56,0,0,0,5.54-10.9v-6.69a12.62,12.62,0,0,0-5.62-11q-5.62-3.9-15.35-3.89h-17.9Z" transform="translate(-657.16 -186.41)"/></svg>